<?xml version="1.0" ?><svg id="Layer_1" style="enable-background:new 0 0 66 66;" version="1.1" viewBox="0 0 66 66" xml:space="preserve" xmlns="http://www.w3.org/2000/svg" xmlns:xlink="http://www.w3.org/1999/xlink"><style type="text/css">
	.st0{fill:#D4EFFC;}
	.st1{fill:#A0DFFF;}
	.st2{fill:#364DEC;}
	.st3{fill:#FABF63;}
	.st4{fill:#F5B6A3;}
	.st5{fill:#26CD9D;}
	.st6{fill:#FFFFFF;}
</style><g><g><path class="st1" d="M28.19,33.31H4.03c-0.38,0-0.69-0.31-0.69-0.69c0-0.38,0.31-0.69,0.69-0.69h24.16c0.38,0,0.69,0.31,0.69,0.69    C28.88,33.01,28.57,33.31,28.19,33.31z"/></g><g><path class="st1" d="M36.95,35.32H3l3.35-4.85h30.59V29.1H6c-0.23,0-0.44,0.11-0.57,0.3l-4.31,6.22    c-0.15,0.21-0.16,0.49-0.04,0.71c0.12,0.23,0.35,0.37,0.61,0.37h35.26V35.32z"/></g><g><path class="st1" d="M19.17,30.48h-7.51c-0.38,0-0.69-0.31-0.69-0.69v-6.91c0-0.38,0.31-0.69,0.69-0.69h7.51    c0.38,0,0.69,0.31,0.69,0.69v6.91C19.86,30.17,19.55,30.48,19.17,30.48z M12.35,29.1h6.13v-5.53h-6.13V29.1z"/></g><g><path class="st1" d="M21.31,23.57H9.52c-0.38,0-0.69-0.31-0.69-0.69s0.31-0.69,0.69-0.69h11.8c0.38,0,0.69,0.31,0.69,0.69    S21.69,23.57,21.31,23.57z"/></g><g><path class="st2" d="M64.31,18.32H33.96c-0.28,0-0.54-0.17-0.64-0.44c-0.1-0.26-0.03-0.56,0.17-0.76L48.67,3.09    c0.26-0.24,0.67-0.24,0.94,0l15.18,14.03c0.21,0.19,0.28,0.49,0.17,0.76C64.85,18.14,64.59,18.32,64.31,18.32z M35.72,16.94h26.83    L49.13,4.54L35.72,16.94z"/></g><g><path class="st1" d="M6,35.32c-0.38,0-0.69,0.31-0.69,0.69V62.4c0,0.01,0.01,0.02,0.01,0.03h1.86v-0.72H6.69V36.7h30.27v-1.38H6z"/></g><g><path class="st0" d="M61.36,17.61v2H46.07c-4.11,0-7.44,3.33-7.44,7.44V62.4H36.9V17.61H61.36z"/></g><g><path class="st2" d="M61.36,63.09H36.91c-0.38,0-0.69-0.31-0.69-0.69V17.61c0-0.38,0.31-0.69,0.69-0.69h24.45    c0.38,0,0.69,0.31,0.69,0.69V62.4C62.05,62.78,61.74,63.09,61.36,63.09z M37.6,61.71h23.08V18.3H37.6V61.71z"/></g><g><g><rect class="st0" height="4.41" width="3.55" x="8.58" y="38.61"/></g><g><rect class="st0" height="4.41" width="3.55" x="14.04" y="38.61"/></g><g><rect class="st0" height="4.41" width="3.55" x="19.49" y="38.61"/></g><g><rect class="st0" height="4.41" width="3.55" x="24.95" y="38.61"/></g><g><rect class="st0" height="4.41" width="3.55" x="30.41" y="38.61"/></g></g><g><g><rect class="st0" height="4.41" width="3.55" x="8.58" y="44.3"/></g><g><rect class="st0" height="4.41" width="3.55" x="14.04" y="44.3"/></g><g><rect class="st0" height="4.41" width="3.55" x="19.49" y="44.3"/></g><g><rect class="st0" height="4.41" width="3.55" x="24.95" y="44.3"/></g><g><rect class="st0" height="4.41" width="3.55" x="30.41" y="44.3"/></g></g><g><g><rect class="st0" height="4.41" width="3.55" x="8.58" y="49.98"/></g><g><rect class="st0" height="4.41" width="3.55" x="14.04" y="49.98"/></g><g><rect class="st0" height="4.41" width="3.55" x="19.49" y="49.98"/></g><g><rect class="st0" height="4.41" width="3.55" x="24.95" y="49.98"/></g><g><rect class="st0" height="4.41" width="3.55" x="30.41" y="49.98"/></g></g><g><g><rect class="st0" height="4.41" width="3.55" x="8.58" y="55.67"/></g><g><rect class="st0" height="4.41" width="3.55" x="14.04" y="55.67"/></g><g><rect class="st0" height="4.41" width="3.55" x="19.49" y="55.67"/></g><g><rect class="st0" height="4.41" width="3.55" x="24.95" y="55.67"/></g><g><rect class="st0" height="4.41" width="3.55" x="30.41" y="55.67"/></g></g><g><g><rect class="st5" height="4.88" width="4.67" x="40.05" y="21.12"/></g><g><rect class="st5" height="4.88" width="4.67" x="47.07" y="21.12"/></g><g><rect class="st5" height="4.88" width="4.67" x="54.08" y="21.12"/></g></g><g><g><rect class="st5" height="4.88" width="4.67" x="40.05" y="28.27"/></g><g><rect class="st5" height="4.88" width="4.67" x="47.07" y="28.27"/></g><g><rect class="st5" height="4.88" width="4.67" x="54.08" y="28.27"/></g></g><g><g><rect class="st5" height="4.88" width="4.67" x="40.05" y="35.42"/></g><g><rect class="st5" height="4.88" width="4.67" x="47.07" y="35.42"/></g><g><rect class="st5" height="4.88" width="4.67" x="54.08" y="35.42"/></g></g><g><path class="st2" d="M55.28,63.09H42.99c-0.38,0-0.69-0.31-0.69-0.69V50.6c0-3.77,3.07-6.83,6.83-6.83s6.83,3.07,6.83,6.83v11.8    C55.97,62.78,55.66,63.09,55.28,63.09z M43.68,61.71h10.91V50.6c0-3.01-2.45-5.46-5.46-5.46c-3.01,0-5.46,2.45-5.46,5.46V61.71z"/></g><g><path class="st2" d="M52.42,55.11c-0.38,0-0.69-0.31-0.69-0.69v-1.3c0-0.38,0.31-0.69,0.69-0.69s0.69,0.31,0.69,0.69v1.3    C53.11,54.8,52.8,55.11,52.42,55.11z"/></g><g><path class="st4" d="M52.21,11.69c0,1.7-1.38,3.08-3.08,3.08c-1.7,0-3.08-1.38-3.08-3.08c0-1.7,1.38-3.08,3.08-3.08    C50.83,8.61,52.21,9.99,52.21,11.69z"/></g><g><path class="st2" d="M63.08,63.09H4.28c-0.38,0-0.69-0.31-0.69-0.69c0-0.38,0.31-0.69,0.69-0.69h58.81c0.38,0,0.69,0.31,0.69,0.69    C63.77,62.78,63.46,63.09,63.08,63.09z"/></g></g></svg>